<?xml version="1.0" encoding="UTF-8" standalone="no"?>
<!-- Created with Inkscape (http://www.inkscape.org/) -->

<svg
   width="135.03926mm"
   height="88.605301mm"
   viewBox="0 0 135.03926 88.605301"
   version="1.1"
   id="svg1"
   xml:space="preserve"
   sodipodi:docname="Caffe_DUCA_icon2.svg"
   inkscape:version="1.4 (86a8ad7, 2024-10-11)"
   xmlns:inkscape="http://www.inkscape.org/namespaces/inkscape"
   xmlns:sodipodi="http://sodipodi.sourceforge.net/DTD/sodipodi-0.dtd"
   xmlns="http://www.w3.org/2000/svg"
   xmlns:svg="http://www.w3.org/2000/svg"><sodipodi:namedview
     id="namedview1"
     pagecolor="#ffffff"
     bordercolor="#000000"
     borderopacity="0.25"
     inkscape:showpageshadow="2"
     inkscape:pageopacity="0.0"
     inkscape:pagecheckerboard="0"
     inkscape:deskcolor="#d1d1d1"
     inkscape:document-units="mm"
     inkscape:zoom="0.72604517"
     inkscape:cx="266.51234"
     inkscape:cy="376.69833"
     inkscape:window-width="1920"
     inkscape:window-height="1017"
     inkscape:window-x="-8"
     inkscape:window-y="-8"
     inkscape:window-maximized="1"
     inkscape:current-layer="g1" /><defs
     id="defs1" /><g
     inkscape:label="Layer 1"
     inkscape:groupmode="layer"
     id="layer1"
     transform="translate(-37.519859,-5.7649699)"><g
       id="g1"><path
         d="m 65.752662,86.443719 c -0.142121,-0.550912 -0.28135,-0.94191 -0.414796,-1.172995 -0.136116,-0.227972 -0.313822,-0.382103 -0.53312,-0.46217 v -0.04737 h 2.87911 v 0.04737 c -0.236867,0.08896 -0.378988,0.278458 -0.426361,0.568704 -0.04737,0.29336 0.0029,0.740629 0.153908,1.338914 l 1.315116,5.62811 1.327126,-5.62811 c 0.142121,-0.598285 0.189494,-1.045554 0.142121,-1.338914 -0.04137,-0.290246 -0.183489,-0.47974 -0.426584,-0.568704 v -0.04737 h 2.488334 v 0.04737 c -0.213292,0.08007 -0.390999,0.234198 -0.533342,0.46217 -0.136115,0.231085 -0.272453,0.622083 -0.414574,1.172995 l -1.919407,7.748798 h -1.718124 z"
         fill="#bcb42d"
         id="path100"
         style="stroke-width:0.222411;fill:#ffffff;fill-opacity:1" /><path
         d="m 72.291923,94.145188 c 0.260666,-0.08585 0.441263,-0.272453 0.545129,-0.556917 0.109426,-0.284241 0.165696,-0.734624 0.165696,-1.350702 v -5.521352 c 0,-0.622084 -0.05627,-1.072244 -0.165696,-1.350702 -0.103866,-0.284464 -0.284463,-0.467953 -0.545129,-0.556917 v -0.04737 h 2.902908 v 0.04737 c -0.260666,0.08896 -0.447268,0.272453 -0.556917,0.556917 -0.103644,0.278458 -0.154131,0.728618 -0.154131,1.350702 v 5.521352 c 0,0.616078 0.05049,1.066461 0.154131,1.350702 0.109649,0.284464 0.296251,0.471066 0.556917,0.556917 v 0.04737 h -2.902908 z"
         fill="#bcb42d"
         id="path101"
         style="stroke-width:0.222411;fill:#ffffff;fill-opacity:1" /><path
         d="m 75.667365,94.145188 c 0.228194,-0.07695 0.390998,-0.216183 0.485746,-0.414796 0.100752,-0.1955 0.165918,-0.417466 0.189716,-0.663452 0.02358,-0.242873 0.03536,-0.465062 0.03536,-0.663452 v -5.62811 c 0,-0.559808 -0.05627,-0.995067 -0.165696,-1.303328 -0.112762,-0.308039 -0.29336,-0.527114 -0.545129,-0.663452 v -0.04737 c 0.947916,-0.05338 1.759493,0.100753 2.440738,0.46217 0.68725,0.36431 1.255955,0.873853 1.706115,1.528409 0.450382,0.648772 0.808686,1.368494 1.078248,2.156274 v -2.357779 c 0,-0.204395 -0.01179,-0.426584 -0.03559,-0.663452 -0.02358,-0.242873 -0.08874,-0.465061 -0.189494,-0.663452 -0.09475,-0.195499 -0.257774,-0.334728 -0.485746,-0.414796 v -0.04737 h 2.618445 v 0.04737 c -0.236868,0.08007 -0.408792,0.219297 -0.509544,0.414796 -0.09475,0.198391 -0.153908,0.420579 -0.177706,0.663452 -0.01779,0.236868 -0.02358,0.459057 -0.02358,0.663452 v 7.642264 h -1.184783 c 0,-0.915222 -0.08896,-1.791966 -0.260666,-2.630233 -0.165918,-0.835375 -0.403008,-1.587792 -0.711047,-2.251243 -0.302035,-0.669457 -0.657447,-1.220369 -1.066239,-1.646954 -0.403008,-0.426584 -0.838267,-0.68725 -1.303328,-0.781997 v 5.521353 c 0,0.19839 0.01179,0.420579 0.03536,0.663452 0.0238,0.245986 0.08296,0.467952 0.177929,0.663452 0.10053,0.198613 0.266449,0.337842 0.497534,0.414796 v 0.04737 h -2.606657 z"
         fill="#bcb42d"
         id="path102"
         style="stroke-width:0.222411;fill:#ffffff;fill-opacity:1" /><path
         d="m 83.229027,94.145188 c 0.260666,-0.08585 0.441263,-0.272453 0.545129,-0.556917 0.109426,-0.284241 0.165696,-0.734624 0.165696,-1.350702 v -5.521352 c 0,-0.622084 -0.05627,-1.072244 -0.165696,-1.350702 -0.103866,-0.284464 -0.284463,-0.467953 -0.545129,-0.556917 v -0.04737 h 2.902908 v 0.04737 c -0.260666,0.08896 -0.447268,0.272453 -0.556917,0.556917 -0.103644,0.278458 -0.154131,0.728618 -0.154131,1.350702 v 5.521352 c 0,0.616078 0.05049,1.066461 0.154131,1.350702 0.109649,0.284464 0.296251,0.471066 0.556917,0.556917 v 0.04737 h -2.902908 z"
         fill="#bcb42d"
         id="path103"
         style="stroke-width:0.222411;fill:#ffffff;fill-opacity:1" /><path
         d="m 90.90652,94.145188 c 0.260666,-0.08585 0.441263,-0.272453 0.545129,-0.556917 0.109426,-0.284241 0.165696,-0.734624 0.165696,-1.350702 v -5.521352 c 0,-0.622084 -0.05627,-1.072244 -0.165696,-1.350702 -0.103866,-0.284464 -0.284463,-0.467953 -0.545129,-0.556917 v -0.04737 h 5.154152 c 0.124328,0 0.260665,-0.01179 0.402786,-0.03558 0.142121,-0.02358 0.236868,-0.05316 0.284241,-0.09475 l -0.876744,1.777286 -0.05916,-0.01179 c 0.05338,-0.465062 -0.266671,-0.699038 -0.959703,-0.699038 H 93.09838 v 2.488112 h 0.03559 c 0.12455,-0.219298 0.287355,-0.397004 0.485745,-0.533119 0.1955,-0.133447 0.417688,-0.201505 0.663675,-0.201505 0.290246,0 0.568705,0.06806 0.82937,0.201505 0.266449,0.136115 0.539124,0.201281 0.817583,0.201281 0.275345,0 0.47974,-0.106534 0.616078,-0.319826 l 0.04737,0.02357 c -0.08007,0.308039 -0.245987,0.610296 -0.497756,0.900542 -0.245764,0.29336 -0.542015,0.438372 -0.888532,0.438372 -0.189494,0 -0.376097,-0.03848 -0.556917,-0.118545 -0.174815,-0.07695 -0.352521,-0.153908 -0.533119,-0.22508 -0.183711,-0.07695 -0.373205,-0.118322 -0.568705,-0.118322 -0.174815,0 -0.325832,0.05916 -0.450382,0.177706 v 4.585224 h 1.670751 c 0.465062,0 0.882749,-0.11254 1.255955,-0.343625 0.370314,-0.227971 0.63098,-0.53601 0.781997,-0.924117 l 0.07095,0.01179 -0.45016,2.42895 c -0.08007,-0.118545 -0.236867,-0.177706 -0.473957,-0.177706 H 90.90652 Z"
         fill="#bcb42d"
         id="path104"
         style="stroke-width:0.222411;fill:#ffffff;fill-opacity:1" /><path
         d="m 103.80393,86.799179 c 0.0712,0.491751 0.25177,0.894537 0.54513,1.208581 0.29025,0.308039 0.65745,0.461948 1.10182,0.461948 0.41769,0 0.74641,-0.130333 0.9835,-0.390999 0.23687,-0.266448 0.35542,-0.59228 0.35542,-0.971491 0,-0.426584 -0.16303,-0.770209 -0.48575,-1.030875 -0.31716,-0.266448 -0.73462,-0.402786 -1.25595,-0.402786 h -1.24417 z m -2.19186,7.346012 c 0.26067,-0.08585 0.44126,-0.272454 0.54491,-0.556917 0.10965,-0.284241 0.16592,-0.734624 0.16592,-1.350702 V 86.71622 c 0,-0.622084 -0.0563,-1.072244 -0.16592,-1.350702 -0.10365,-0.284464 -0.28424,-0.467953 -0.54491,-0.556917 v -0.04737 h 4.09948 c 0.80557,0 1.44834,0.219297 1.93119,0.651664 0.48886,0.426585 0.73463,0.99529 0.73463,1.706115 0,0.68725 -0.23109,1.26196 -0.68725,1.718125 -0.45906,0.459056 -1.04845,0.68725 -1.76528,0.68725 -0.44438,0 -0.84716,-0.08897 -1.20858,-0.272676 -0.36431,-0.180598 -0.66946,-0.432367 -0.91233,-0.758199 v 3.744066 c 0,0.616078 0.0503,1.066461 0.15413,1.350702 0.10943,0.284463 0.29603,0.471066 0.5567,0.556917 v 0.04737 h -2.90269 z"
         fill="#bcb42d"
         id="path105"
         style="stroke-width:0.222411;fill:#ffffff;fill-opacity:1" /><path
         d="m 108.76,94.145188 c 0.26067,-0.08585 0.44126,-0.272453 0.54513,-0.556917 0.10943,-0.284241 0.1657,-0.734624 0.1657,-1.350702 v -5.521352 c 0,-0.622084 -0.0563,-1.072244 -0.1657,-1.350702 -0.10387,-0.284464 -0.28446,-0.467953 -0.54513,-0.556917 v -0.04737 h 2.90291 v 0.04737 c -0.26067,0.08896 -0.44727,0.272453 -0.55692,0.556917 -0.10364,0.278458 -0.15413,0.728618 -0.15413,1.350702 v 5.521352 c 0,0.616078 0.0505,1.066461 0.15413,1.350702 0.10965,0.284464 0.29625,0.471066 0.55692,0.556917 v 0.04737 H 108.76 Z"
         fill="#bcb42d"
         id="path106"
         style="stroke-width:0.222411;fill:#ffffff;fill-opacity:1" /><path
         d="m 114.11413,90.886859 h 2.32219 l -1.23215,-4.490477 z m -2.5475,3.258321 c 0.22219,-0.07695 0.39701,-0.228194 0.53335,-0.45016 0.13322,-0.228194 0.27245,-0.622084 0.41457,-1.185006 l 1.48103,-5.710846 c 0.16592,-0.63098 0.23999,-1.101824 0.22508,-1.410086 -0.0176,-0.308039 -0.11832,-0.500424 -0.30803,-0.580492 v -0.04737 h 2.41716 l 2.08532,7.748798 c 0.13323,0.530228 0.26667,0.91233 0.40279,1.14942 0.14234,0.236868 0.32294,0.399895 0.54513,0.485746 v 0.04737 h -2.86732 v -0.04737 c 0.23686,-0.08585 0.3821,-0.275567 0.43837,-0.568705 0.0534,-0.290246 0.003,-0.737515 -0.15413,-1.338914 l -0.0948,-0.367201 h -2.81995 l -0.083,0.367201 c -0.14212,0.586498 -0.1955,1.02487 -0.15391,1.315116 0.0474,0.29336 0.19261,0.491751 0.43838,0.592503 v 0.04737 h -2.50013 z"
         fill="#bcb42d"
         id="path107"
         style="stroke-width:0.222411;fill:#ffffff;fill-opacity:1" /><path
         d="m 120.81904,94.145188 c 0.26067,-0.08585 0.44126,-0.272453 0.54513,-0.556917 0.10943,-0.284241 0.1657,-0.734624 0.1657,-1.350702 v -6.481056 h -0.59228 c -0.36431,0 -0.69326,0.118545 -0.98351,0.355413 -0.29313,0.23709 -0.50353,0.556917 -0.62786,0.959704 l -0.0594,-0.01179 0.29626,-2.42895 c 0.0385,0.04159 0.12143,0.07117 0.24887,0.09475 0.12433,0.0238 0.26645,0.03558 0.42659,0.03558 h 4.0521 c 0.15702,0 0.29915,-0.01179 0.42659,-0.03558 0.12432,-0.02358 0.21329,-0.05316 0.26066,-0.09475 l 0.29625,2.42895 -0.0712,0.01179 c -0.11854,-0.402787 -0.32583,-0.722614 -0.61608,-0.959704 -0.29336,-0.236868 -0.62208,-0.355413 -0.9835,-0.355413 h -0.58049 v 6.481056 c 0,0.616078 0.0503,1.066461 0.15391,1.350702 0.10075,0.284464 0.28735,0.471066 0.55692,0.556917 v 0.04737 h -2.9147 z"
         fill="#bcb42d"
         id="path108"
         style="stroke-width:0.222411;fill:#ffffff;fill-opacity:1" /><path
         d="m 127.28866,94.145188 c 0.26067,-0.08585 0.44126,-0.272453 0.54513,-0.556917 0.10943,-0.284241 0.1657,-0.734624 0.1657,-1.350702 v -6.481056 h -0.59228 c -0.36431,0 -0.69326,0.118545 -0.98351,0.355413 -0.29313,0.23709 -0.50353,0.556917 -0.62786,0.959704 l -0.0594,-0.01179 0.29626,-2.42895 c 0.0385,0.04159 0.12143,0.07117 0.24887,0.09475 0.12433,0.0238 0.26645,0.03558 0.42659,0.03558 h 4.0521 c 0.15702,0 0.29915,-0.01179 0.42659,-0.03558 0.12432,-0.02358 0.21329,-0.05316 0.26066,-0.09475 l 0.29625,2.42895 -0.0712,0.01179 c -0.11854,-0.402787 -0.32583,-0.722614 -0.61608,-0.959704 -0.29336,-0.236868 -0.62208,-0.355413 -0.9835,-0.355413 h -0.58049 v 6.481056 c 0,0.616078 0.0503,1.066461 0.15391,1.350702 0.10075,0.284464 0.28735,0.471066 0.55692,0.556917 v 0.04737 h -2.9147 z"
         fill="#bcb42d"
         id="path109"
         style="stroke-width:0.222411;fill:#ffffff;fill-opacity:1" /><path
         d="m 132.20612,94.145188 c 0.26067,-0.08585 0.44126,-0.272453 0.54513,-0.556917 0.10943,-0.284241 0.1657,-0.734624 0.1657,-1.350702 v -5.521352 c 0,-0.622084 -0.0563,-1.072244 -0.1657,-1.350702 -0.10387,-0.284464 -0.28446,-0.467953 -0.54513,-0.556917 v -0.04737 h 2.90291 v 0.04737 c -0.26067,0.08896 -0.44727,0.272453 -0.55692,0.556917 -0.10364,0.278458 -0.15413,0.728618 -0.15413,1.350702 v 5.521352 c 0,0.616078 0.0505,1.066461 0.15413,1.350702 0.10965,0.284464 0.29625,0.471066 0.55692,0.556917 v 0.04737 h -2.90291 z"
         fill="#bcb42d"
         id="path110"
         style="stroke-width:0.222411;fill:#ffffff;fill-opacity:1" /><path
         d="m 135.58157,94.145188 c 0.22797,-0.07695 0.391,-0.216183 0.48575,-0.414796 0.10075,-0.1955 0.16591,-0.417466 0.18949,-0.663452 0.0238,-0.242873 0.0356,-0.465062 0.0356,-0.663452 v -5.62811 c 0,-0.559808 -0.0563,-0.995289 -0.1657,-1.303328 -0.11276,-0.308039 -0.29336,-0.527114 -0.54513,-0.663452 v -0.04737 c 0.94792,-0.05338 1.75949,0.100753 2.44074,0.46217 0.68725,0.36431 1.25595,0.873853 1.70611,1.528409 0.45038,0.64855 0.80869,1.368494 1.07825,2.156274 v -2.357779 c 0,-0.204395 -0.0118,-0.426584 -0.0356,-0.663452 -0.0236,-0.242873 -0.0887,-0.465061 -0.1895,-0.663452 -0.0948,-0.195499 -0.25777,-0.334728 -0.48574,-0.414796 v -0.04737 h 2.61844 v 0.04737 c -0.23687,0.08007 -0.40879,0.219297 -0.50954,0.414796 -0.0947,0.198391 -0.15391,0.420579 -0.17771,0.663452 -0.0178,0.236868 -0.0236,0.459057 -0.0236,0.663452 v 7.642264 h -1.18478 c 0,-0.915222 -0.089,-1.791966 -0.26066,-2.630233 -0.16592,-0.835375 -0.40301,-1.587792 -0.71105,-2.251243 -0.30204,-0.669457 -0.65767,-1.220369 -1.06624,-1.646954 -0.40301,-0.426584 -0.83827,-0.68725 -1.30333,-0.781997 v 5.521353 c 0,0.19839 0.0118,0.420579 0.0354,0.663452 0.0238,0.245986 0.083,0.467952 0.17771,0.663452 0.10075,0.198613 0.26667,0.337842 0.49776,0.414796 v 0.04737 h -2.60666 z"
         fill="#bcb42d"
         id="path111"
         style="stroke-width:0.222411;fill:#ffffff;fill-opacity:1" /><path
         d="m 143.14323,94.145157 c 0.26067,-0.08585 0.44126,-0.272453 0.54513,-0.556917 0.10943,-0.284241 0.1657,-0.734624 0.1657,-1.350702 v -5.521352 c 0,-0.622084 -0.0563,-1.072244 -0.1657,-1.350702 -0.10387,-0.284464 -0.28446,-0.467953 -0.54513,-0.556917 v -0.04737 h 2.90291 v 0.04737 c -0.26067,0.08896 -0.44727,0.272453 -0.55692,0.556917 -0.10364,0.278458 -0.15413,0.728618 -0.15413,1.350702 v 5.521352 c 0,0.616078 0.0505,1.066461 0.15413,1.350702 0.10965,0.284464 0.29625,0.471066 0.55692,0.556917 v 0.04737 h -2.90291 z"
         fill="#bcb42d"
         id="path112"
         style="stroke-width:0.222411;fill:#ffffff;fill-opacity:1" /><path
         d="m 59.539634,89.500594 c 0,2.0166 -1.634721,3.651321 -3.651321,3.651321 -2.0166,0 -3.651543,-1.634721 -3.651543,-3.651321 0,-2.0166 1.634943,-3.651321 3.651543,-3.651321 2.0166,0 3.651321,1.634721 3.651321,3.651321"
         fill="#bcb42d"
         id="path113"
         style="stroke-width:0.222411;fill:#ffffff;fill-opacity:1" /><path
         d="m 157.84215,89.500582 c 0,2.0166 -1.63472,3.651321 -3.65132,3.651321 -2.0166,0 -3.65154,-1.634721 -3.65154,-3.651321 0,-2.0166 1.63494,-3.651321 3.65154,-3.651321 2.0166,0 3.65132,1.634721 3.65132,3.651321"
         fill="#bcb42d"
         id="path114"
         style="stroke-width:0.222411;fill:#ffffff;fill-opacity:1" /><path
         d="m 44.659251,74.308285 c -2.223442,0 -3.97315,-0.877189 -5.244895,-2.631344 -1.263072,-1.76283 -1.894497,-4.179325 -1.894497,-7.244593 0,-3.262769 0.631425,-5.771342 1.894497,-7.525497 1.271745,-1.76283 3.091734,-2.648693 5.455296,-2.648693 1.004408,0 1.776174,0.105201 2.31552,0.315824 0.548243,0.210401 1.004408,0.315601 1.368273,0.315601 0.197501,0 0.368535,-0.06139 0.508876,-0.19283 l 0.263112,5.455296 -0.08785,0.01757 c -0.434146,-1.236605 -0.991063,-2.183854 -1.666526,-2.841745 -0.666565,-0.666566 -1.464576,-0.99996 -2.38558,-0.99996 -1.368272,0 -2.438291,0.719277 -3.210057,2.157831 -0.771989,1.429658 -1.157872,3.411784 -1.157872,5.946602 0,2.271706 0.421024,4.104817 1.263072,5.508008 0.842048,1.394517 1.938312,2.087549 3.29791,2.087549 0.912107,0 1.719014,-0.298253 2.420721,-0.894759 0.701707,-0.60518 1.201687,-1.429658 1.508614,-2.47321 h 0.19283 l 0.315824,3.210058 c -1.254176,1.626936 -2.973413,2.438291 -5.157266,2.438291"
         fill="#bcb42d"
         id="path115"
         style="stroke-width:0.222411;fill:#ffffff;fill-opacity:1" /><path
         d="m 54.841492,67.168817 h 4.771383 l -2.526144,-9.244512 z m -5.244895,6.70102 c 0.455942,-0.149238 0.815581,-0.460613 1.087589,-0.9299 0.280683,-0.464839 0.565591,-1.28042 0.859396,-2.438292 l 3.069939,-11.752863 c 0.33762,-1.29799 0.491083,-2.262809 0.455942,-2.894456 -0.03492,-0.640099 -0.245541,-1.039326 -0.631424,-1.19279 v -0.1052 h 4.964212 l 4.29787,15.945309 c 0.26756,1.08759 0.543795,1.877149 0.824477,2.368232 0.289357,0.491084 0.666566,0.824478 1.122509,0.99996 v 0.105201 h -5.893891 v -0.105201 c 0.477961,-0.175482 0.771766,-0.561365 0.876966,-1.157871 0.114097,-0.605181 0.01757,-1.526184 -0.29803,-2.754115 l -0.210624,-0.754196 h -5.78869 l -0.175482,0.754196 c -0.293805,1.206134 -0.39478,2.113793 -0.298253,2.718974 0.09208,0.596506 0.385883,0.995511 0.877189,1.193012 v 0.105201 h -5.139695 z"
         fill="#bcb42d"
         id="path116"
         style="stroke-width:0.222411;fill:#ffffff;fill-opacity:1" /><path
         d="m 65.429143,73.869735 c 0.548243,-0.175482 0.929678,-0.548243 1.140301,-1.122731 0.219075,-0.583161 0.333172,-1.512839 0.333172,-2.789033 v -11.38455 c 0,-1.271746 -0.114097,-2.197198 -0.333172,-2.771686 -0.210623,-0.583162 -0.592058,-0.964819 -1.140301,-1.140079 v -0.105422 h 10.840755 c 0.245542,0 0.513103,-0.0218 0.806907,-0.07006 0.302702,-0.04381 0.495532,-0.109648 0.578936,-0.193053 l -1.806866,3.666223 -0.08763,-0.03492 c 0.1052,-0.94747 -0.556917,-1.420983 -1.982349,-1.420983 h -3.823912 v 5.420377 h 0.07006 c 0.254438,-0.456165 0.58761,-0.815581 0.99996,-1.087589 0.407679,-0.280683 0.859396,-0.421024 1.350702,-0.421024 0.618302,0 1.197238,0.140341 1.736585,0.421024 0.548243,0.272008 1.109608,0.403453 1.684096,0.403453 0.561142,0 0.973492,-0.214849 1.245279,-0.648995 l 0.105422,0.03514 c -0.153686,0.631425 -0.486857,1.254175 -0.999959,1.859356 -0.517551,0.596506 -1.135853,0.894537 -1.859356,0.894537 -0.385883,0 -0.763092,-0.07451 -1.122731,-0.227972 -0.364086,-0.16236 -0.732399,-0.320049 -1.10516,-0.473735 -0.377209,-0.162138 -0.767318,-0.245542 -1.175219,-0.245542 -0.364087,0 -0.675462,0.122771 -0.929678,0.368535 v 7.156963 c 0,1.276194 0.1052,2.205872 0.315601,2.789033 0.219297,0.574488 0.60518,0.947249 1.157872,1.122731 v 0.1052 h -5.999314 z"
         fill="#bcb42d"
         id="path117"
         style="stroke-width:0.222411;fill:#ffffff;fill-opacity:1" /><path
         d="m 78.333495,73.869735 c 0.548243,-0.175482 0.929678,-0.548243 1.140301,-1.122731 0.219075,-0.583161 0.333172,-1.512839 0.333172,-2.789033 v -11.38455 c 0,-1.271746 -0.114097,-2.197198 -0.333172,-2.771686 -0.210623,-0.583162 -0.592058,-0.964819 -1.140301,-1.140079 V 54.556234 H 89.17425 c 0.245542,0 0.513103,-0.0218 0.806907,-0.07006 0.302702,-0.04381 0.495532,-0.109648 0.578936,-0.193053 l -1.806866,3.666223 -0.08763,-0.03492 c 0.1052,-0.94747 -0.556917,-1.420983 -1.982349,-1.420983 h -3.823912 v 5.420377 h 0.07006 c 0.254438,-0.456165 0.58761,-0.815581 0.99996,-1.087589 0.407679,-0.280683 0.859396,-0.421024 1.350702,-0.421024 0.618302,0 1.197238,0.140341 1.736585,0.421024 0.548243,0.272008 1.109608,0.403453 1.684096,0.403453 0.561142,0 0.973492,-0.214849 1.245279,-0.648995 l 0.105422,0.03514 c -0.153463,0.631425 -0.486857,1.254175 -0.999959,1.859356 -0.517551,0.596506 -1.135853,0.894537 -1.859356,0.894537 -0.385883,0 -0.763092,-0.07451 -1.122731,-0.227972 -0.364086,-0.16236 -0.732399,-0.320049 -1.10516,-0.473735 -0.377209,-0.162138 -0.767318,-0.245542 -1.175219,-0.245542 -0.364087,0 -0.675462,0.122771 -0.929678,0.368535 v 7.156963 c 0,1.276194 0.1052,2.205872 0.315601,2.789033 0.219297,0.574488 0.60518,0.947249 1.157872,1.122731 v 0.1052 h -5.999314 z"
         fill="#bcb42d"
         id="path118"
         style="stroke-width:0.222411;fill:#ffffff;fill-opacity:1" /><path
         d="m 96.588053,53.538895 1.526184,-4.40307 h 2.806603 v 0.350965 l -3.210056,4.052105 z m -5.350318,20.330809 c 0.548243,-0.175482 0.9299,-0.548243 1.140301,-1.12273 0.219297,-0.583162 0.333394,-1.51284 0.333394,-2.789034 V 58.57339 c 0,-1.271746 -0.114097,-2.197198 -0.333394,-2.771686 -0.210401,-0.583161 -0.592058,-0.964819 -1.140301,-1.140078 v -0.105423 h 10.630355 c 0.24554,0 0.5131,-0.0218 0.80691,-0.07006 0.3027,-0.04381 0.49998,-0.109648 0.5965,-0.193052 l -1.80686,3.666222 -0.1052,-0.03492 c 0.11387,-0.947249 -0.5438,-1.420984 -1.982353,-1.420984 h -3.613511 v 5.104776 h 0.07028 c 0.254216,-0.456164 0.58761,-0.815803 0.999738,-1.087589 0.407901,-0.267561 0.859618,-0.403676 1.350702,-0.403676 0.618302,0 1.197238,0.136115 1.736584,0.403676 0.54824,0.271786 1.10961,0.403231 1.6841,0.403231 0.56136,0 0.97349,-0.214849 1.2455,-0.648995 l 0.1052,0.03514 c -0.15346,0.644769 -0.48686,1.271745 -0.99996,1.876926 -0.51733,0.596506 -1.13563,0.894759 -1.85936,0.894759 -0.38588,0 -0.763089,-0.07896 -1.122728,-0.245764 -0.363864,-0.162138 -0.732177,-0.320049 -1.104938,-0.473513 -0.377209,-0.16236 -0.76754,-0.245542 -1.175442,-0.245542 -0.363864,0 -0.675239,0.131445 -0.929677,0.385883 v 9.419772 h 3.455821 c 0.947254,0 1.797974,-0.232419 2.561064,-0.701484 0.75864,-0.478184 1.29799,-1.114057 1.61381,-1.912067 l 0.14034,0.03492 -0.9121,4.999577 c -0.16681,-0.245765 -0.49998,-0.368535 -0.99996,-0.368535 H 91.237735 Z"
         fill="#bcb42d"
         id="path119"
         style="stroke-width:0.222411;fill:#ffffff;fill-opacity:1" /><path
         d="m 117.79292,71.922581 h 0.45616 c 1.74104,0 3.14423,-0.727951 4.21002,-2.19275 1.07425,-1.46035 1.61382,-3.429354 1.61382,-5.911461 0,-2.245461 -0.49998,-4.003842 -1.49105,-5.280036 -0.98239,-1.285091 -2.29372,-1.929638 -3.92933,-1.929638 h -0.85962 z m -4.52584,1.947208 c 0.54824,-0.175482 0.92968,-0.548243 1.1403,-1.122731 0.2193,-0.583384 0.33317,-1.513061 0.33317,-2.789033 V 58.573252 c 0,-1.271746 -0.11387,-2.196975 -0.33317,-2.771463 -0.21062,-0.583384 -0.59206,-0.964819 -1.1403,-1.140301 v -0.1052 h 5.99931 c 2.52592,0 4.48203,0.806907 5.87655,2.420721 1.39006,1.613814 2.08732,3.872397 2.08732,6.771079 0,2.096224 -0.35941,3.907539 -1.07002,5.437948 -0.71483,1.534859 -1.73213,2.714526 -3.05214,3.543452 -1.31134,0.833151 -2.87689,1.245501 -4.70133,1.245501 h -5.13969 z"
         fill="#bcb42d"
         id="path120"
         style="stroke-width:0.222411;fill:#ffffff;fill-opacity:1" /><path
         d="m 135.85326,74.308256 c -1.6841,0 -3.14867,-0.429698 -4.3855,-1.29799 -1.24105,-0.877189 -2.04351,-2.008594 -2.40315,-3.403111 0.31582,-0.127219 0.50865,-0.359638 0.57894,-0.701706 0.0701,-0.33762 0.11387,-0.657892 0.14034,-0.964819 l 0.3156,-9.700677 c 0.009,-0.407679 -0.0131,-0.863844 -0.0701,-1.36805 -0.0483,-0.49998 -0.17548,-0.956145 -0.38588,-1.368272 -0.20173,-0.407902 -0.53957,-0.688584 -1.01753,-0.842048 v -0.1052 h 5.99931 v 0.1052 c -0.48241,0.153464 -0.82448,0.434146 -1.03488,0.842048 -0.20173,0.412127 -0.31582,0.868292 -0.35096,1.368272 -0.0349,0.504206 -0.0658,0.960371 -0.0876,1.36805 l -0.29826,10.17419 c -0.0262,1.184116 0.23687,2.12269 0.78934,2.824397 0.56137,0.69281 1.3507,1.034878 2.36823,1.034878 1.02621,0 1.82866,-0.33762 2.40315,-1.01753 0.58339,-0.688362 0.85072,-1.622488 0.80691,-2.806604 L 138.9054,58.239953 c 0,-0.407679 -0.0262,-0.863844 -0.0701,-1.36805 -0.0351,-0.49998 -0.15792,-0.956145 -0.36832,-1.368272 -0.20172,-0.407902 -0.53957,-0.688584 -1.01753,-0.842048 v -0.1052 h 5.57829 v 0.1052 c -0.46928,0.153464 -0.8069,0.434146 -1.0173,0.842048 -0.20173,0.412127 -0.32472,0.868292 -0.36854,1.368272 -0.0483,0.504206 -0.0701,0.960371 -0.0701,1.36805 l 0.29825,9.876159 c 0.0218,0.293805 0.079,0.58761 0.17526,0.876967 0.0921,0.280682 0.27201,0.486857 0.5438,0.614076 -0.36387,1.416313 -1.15765,2.556614 -2.38558,3.420459 -1.22793,0.85517 -2.67961,1.280642 -4.35036,1.280642"
         fill="#bcb42d"
         id="path121"
         style="stroke-width:0.222411;fill:#ffffff;fill-opacity:1" /><path
         d="m 151.57127,74.308245 c -2.22344,0 -3.97315,-0.876966 -5.2449,-2.631344 -1.26307,-1.76283 -1.89449,-4.179325 -1.89449,-7.244593 0,-3.262769 0.63142,-5.771342 1.89449,-7.525497 1.27175,-1.76283 3.09174,-2.648693 5.4553,-2.648693 1.00441,0 1.77617,0.105201 2.31552,0.315602 0.54824,0.210623 1.00441,0.315823 1.36827,0.315823 0.1975,0 0.36854,-0.06139 0.50888,-0.19283 l 0.26311,5.455296 -0.0879,0.01757 c -0.43415,-1.236605 -0.99106,-2.183854 -1.6663,-2.841745 -0.66679,-0.666566 -1.4648,-0.999738 -2.38581,-0.999738 -1.36827,0 -2.43829,0.719055 -3.21005,2.157609 -0.77199,1.429658 -1.15787,3.411784 -1.15787,5.946602 0,2.271706 0.42102,4.104817 1.26307,5.508008 0.84205,1.394517 1.93831,2.087549 3.29791,2.087549 0.9121,0 1.71901,-0.298253 2.42072,-0.894759 0.7017,-0.60518 1.20168,-1.429658 1.50861,-2.47321 h 0.19283 l 0.31583,3.210058 c -1.25418,1.626936 -2.97342,2.438291 -5.15727,2.438291"
         fill="#bcb42d"
         id="path122"
         style="stroke-width:0.222411;fill:#ffffff;fill-opacity:1" /><path
         d="m 161.75351,67.168764 h 4.77138 l -2.52614,-9.244512 z m -5.2449,6.70102 c 0.45595,-0.149238 0.81559,-0.460613 1.08759,-0.9299 0.28069,-0.464839 0.5656,-1.28042 0.8594,-2.438292 l 3.06994,-11.752863 c 0.33762,-1.29799 0.49108,-2.262809 0.45594,-2.894456 -0.0349,-0.640099 -0.24554,-1.039326 -0.63142,-1.19279 v -0.1052 h 4.96421 l 4.29787,15.945309 c 0.26756,1.08759 0.54379,1.877149 0.82448,2.368232 0.28935,0.491084 0.66656,0.824478 1.1225,0.99996 v 0.105201 h -5.89389 v -0.105201 c 0.47797,-0.175482 0.77177,-0.561365 0.87697,-1.157871 0.1141,-0.605181 0.0176,-1.526184 -0.29803,-2.753893 l -0.21062,-0.754418 h -5.78869 l -0.17549,0.754418 c -0.2938,1.205912 -0.39478,2.113571 -0.29825,2.718752 0.0921,0.596506 0.38588,0.995511 0.87719,1.193012 v 0.105201 h -5.1397 z"
         fill="#bcb42d"
         id="path123"
         style="stroke-width:0.222411;fill:#ffffff;fill-opacity:1" /><path
         d="m 135.62992,14.294653 c -1.32757,0 -2.4036,1.105605 -2.4036,2.469207 0,0.450159 0.12589,0.866068 0.33073,1.229487 l -9.70201,8.700718 -0.66234,-3.72872 c 0.0805,0.0082 0.1588,0.02491 0.24154,0.02491 1.32757,0 2.40381,-1.105605 2.40381,-2.469207 0,-1.363824 -1.07624,-2.469206 -2.40381,-2.469206 -1.32735,0 -2.4036,1.105382 -2.4036,2.469206 0,0.777771 0.35697,1.462797 0.9041,1.915403 l -1.56533,1.232824 -2.3818,-2.659812 c 0.80135,-0.40034 1.35827,-1.23705 1.35827,-2.213879 0,-1.363824 -1.07603,-2.469429 -2.4036,-2.469429 -1.32757,0 -2.40381,1.105605 -2.40381,2.469429 0,1.189898 0.82002,2.182741 1.91095,2.416273 l -2.68205,7.457662 c 0,0 -6.5291,-9.802541 -6.73861,-13.086884 1.98924,-2.963181 8.74386,-3.271888 8.74386,-3.271888 0,0 -1.77506,-3.0863969 -6.88095,-2.6542524 -0.90143,-3.3953258 -3.85215,-3.8915247 -3.85215,-3.8915247 0,0 -2.95073,0.4961989 -3.85216,3.8915247 -5.106114,-0.4321445 -6.880953,2.6542524 -6.880953,2.6542524 0,0 6.754403,0.308707 8.743643,3.271888 -0.20929,3.284343 -6.738386,13.086884 -6.738386,13.086884 l -2.682276,-7.457662 c 1.090925,-0.233532 1.910955,-1.226375 1.910955,-2.416273 0,-1.363824 -1.076025,-2.469429 -2.403596,-2.469429 -1.327571,0 -2.403817,1.105605 -2.403817,2.469429 0,0.976829 0.556917,1.813539 1.358263,2.213879 l -2.381799,2.659812 -1.565106,-1.232824 c 0.547131,-0.452606 0.904101,-1.137632 0.904101,-1.915403 0,-1.363824 -1.076247,-2.469206 -2.403818,-2.469206 -1.327571,0 -2.403595,1.105382 -2.403595,2.469206 0,1.363602 1.076246,2.469207 2.403595,2.469207 0.08296,0 0.161026,-0.01668 0.241761,-0.02491 l -0.66234,3.72872 -9.702011,-8.700718 c 0.20484,-0.363197 0.330725,-0.779328 0.330725,-1.229487 0,-1.363602 -1.076247,-2.469207 -2.403818,-2.469207 -1.327349,0 -2.403595,1.105605 -2.403595,2.469207 0,1.363824 1.076246,2.469206 2.403595,2.469206 0.551579,0 1.053561,-0.19839 1.459016,-0.519107 l 11.215295,23.746152 h 17.916321 17.91631 l 11.2153,-23.746152 c 0.40545,0.320717 0.90743,0.519107 1.45879,0.519107 1.32757,0 2.40382,-1.105382 2.40382,-2.469206 0,-1.363602 -1.07625,-2.469207 -2.40382,-2.469207"
         fill="#bcb42d"
         id="path124"
         style="stroke-width:0.222411;fill:#ffffff;fill-opacity:1" /><path
         d="M 122.94204,44.534291 H 87.136988 v -1.296434 h 35.805052 z"
         fill="#bcb42d"
         id="path125"
         style="stroke-width:0.222411;fill:#ffffff;fill-opacity:1" /></g></g></svg>
